<svg xmlns="http://www.w3.org/2000/svg" version="1.1" xmlns:xlink="http://www.w3.org/1999/xlink" xmlns:svgjs="http://svgjs.dev/svgjs" width="1500" height="1687" viewBox="0 0 1500 1687"><g transform="matrix(1,0,0,1,0.00011015625000254659,0)"><svg viewBox="0 0 320 360" data-background-color="#b19dd0" preserveAspectRatio="xMidYMid meet" height="1687" width="1500" xmlns="http://www.w3.org/2000/svg" xmlns:xlink="http://www.w3.org/1999/xlink"><g id="tight-bounds" transform="matrix(1,0,0,1,0.000023499999997511622,0)"><svg viewBox="0 0 320 360" height="360" width="320"><g><svg></svg></g><g><svg viewBox="0 0 320 360" height="360" width="320"><g><path transform="translate(-74.99272,-51.79039) scale(4.65793,4.65793)" d="M20.6 59.9l0.8 1-0.4-1.3c-0.1-0.6-0.8 0.1-0.4 0.3M21.5 59.3c0.3 0.5 0.6 1 0.6 1.5 0 0.7 0.6 1 1.1 1.2-0.7-0.8-1.1-3-1.7-2.7M59.9 16.9c1.7 0 3.3-0.2 5.1 0.2 4.4 1.1 8.1 3.3 10.6 6.4l7 11.2c0.3 2.8 0.9 5.9 0.8 9.3 0.7 0 0.6-1 1.4-1.2-0.8 2-1.2 4.5-1.4 7.4-0.5-1.6 0-4 0.1-5.3-0.7 1.1-1.1 0.3-1.1-0.2 0.1-0.8-0.3-0.7-0.6-1-1.1-1-1.8-2.1-2.6-3.8 0.5-1.3 0.6-3.2-1-4.2-0.5-0.3-1.1-0.8-1.4-1.6-0.4-1.1-1.1-2.4-0.9-4.1 0.1-0.5-1.5 1.1-2.4 0.4-3.9-2.7-7.8-5.8-12.5-8.4-2.5 0-4.3-0.9-5.2-2-0.8-1-0.2-2.3 1-2.4 0.7 0 1.5-0.2 2.1 0.2 0.1-0.4 0.5-0.9 1-0.9M50 14.6l0.2 0.1c1 0.2 1.5 1.6 2.6 1.1 0 0.7 0.1 1.4-0.1 1.9-0.3 0.8-1.2 0.8-1.9 0.8-6.7-0.4-10.6 2.4-14.7 4.8-1.1 0.7-2.3 1.2-3.2 2.1-4.3 4-9 7.7-10.1 15.1l-0.9 8.2c-0.1 0.9-1.1 1.8-0.9 2.9l0.7 4.9c-0.7-0.7-1.1 0.2-0.9 0.6 0.1 0.3 0.5 1.3 1.1 0.4 0.8 1.5 1.6 4.4 2.7 5.7 3.4 4 7.8 7.6 11.4 11.2 0.9-0.2 1.6-0.2 1.8-0.8 0.3 0.6-0.3 1.2-0.8 1.3 1.6 1 3.4 1.9 5.8 2.1 3.1 0.2 6 0.7 8.7 1.4 1.4-0.4 2.8-0.6 4.3-0.7 0.5 0 0.8-0.8 1.4-1l0.1-1c0.6 0.9 0.5-0.3 0.1-0.9 0.7 0.6 0.9 1.1 1.2 1.5 0-0.3 0.8-1.4 0.8-0.1l0.2-1.3c0.3-0.2 0.4 1.1 0.7 0.2 0.3-0.9 0.9-0.2 1.5-0.5-0.2 0.4-0.1 1.2 0.6 0.7l0.8-0.7c0.5 1.2 1.3 0.7 1.7 0.5 4.4-2.8 8.8-6.1 13-9.4l-0.1 1.3 0.5-1.6c0.5 0.5 0.9 0.1 1.1-0.2 0.6-1 1.4-2 2.7-2.9-1.6 4.3-3.5 7.7-5.9 10.5l-1 1.2c0 0.7-0.2 1.6-1 1.7-0.4 0.1-1.2-0.2-1.8 0.4-0.3 0.4 0.7 1.2-0.1 0.6-0.7-0.5-1.4 0-2.2 0.2-0.6 0.2 0.4 0.8 0.6 1.2 0.2 0.4 0.4 0.8 0.3 1.3l-1.1-1.2c-1.3 0.7-2.1 2-3.2 3-0.5 0.4-0.3 1.1-0.3 1.7-0.7 0-1.5-0.2-1.9 0.2-0.3 0.4-0.2 1-0.2 1.6-1-0.1-1.1-1.6-2-1.3-0.9 0.2-1.9 0.3-2.7 0.8 0.6 1.2-1 0.5-0.8 0.7-1.5-0.9-2.8-1.6-4.4-1-3.4-1.1-7.6-0.6-10.7-0.2 0-0.5 0.1-1-0.1-1.1-0.2 0.5-0.8 0.3-0.7 0.3-1.9-1.3-3.8-2.1-5.8-3.2-1.8 0.2-3.5-0.7-4-1.2-1.4-1.3-3-0.6-4.3-0.9-2.8-0.7-3.8-3.6-4.1-5.6-0.2-1-1-1.4-1.3-1.3-1.3-4.2-3.3-8-4.9-11.9-0.4-1-0.3-2-0.3-3.1 0.5 0.2 1 0.1 0.9-0.6-0.5-3.3-1.7-5.8-3-8.2 0.7-3.4 0.8-7.4 2.4-10.4 1.4-2.7 4-4.1 5.8-6.4 0.6-0.8 0.6-1.9 1.2-2.6 2-2 4-4.1 6.2-5.9 1-0.8 2.2 0 3.7-0.3 0.5-1.8 2.5-3.4 4.4-2.9 0.8 0.2 2.4-1.9 2.9-2.1 0.8-0.3 0.4 0.8 0.4 1.5 1.9-1.5 4.5-2.3 6.9-3.2" fill="#7a26c1" fill-rule="nonzero" stroke="none" stroke-width="1" stroke-linecap="butt" stroke-linejoin="miter" stroke-miterlimit="10" stroke-dasharray="" stroke-dashoffset="0" font-family="none" font-weight="none" font-size="none" text-anchor="none" style="mix-blend-mode: normal" data-fill-palette-color="tertiary"></path></g><g transform="matrix(1,0,0,1,121.30422013477356,90)"><svg viewBox="0 0 77.39155973045288 180" height="180" width="77.39155973045288"><g><svg viewBox="0 0 77.39155973045288 180" height="180" width="77.39155973045288"><g><svg viewBox="0 0 120.77649034424857 280.90619103274565" height="180" width="77.39155973045288"><g transform="matrix(1,0,0,1,0,100.90619103274562)"><svg viewBox="0 0 120.77649034424857 180.00000000000003" height="180.00000000000003" width="120.77649034424857"><g id="textblocktransform"><svg viewBox="0 0 120.77649034424857 180.00000000000003" height="180.00000000000003" width="120.77649034424857" id="textblock"><g><svg viewBox="0 0 120.77649034424857 180.00000000000003" height="180.00000000000003" width="120.77649034424857"><g transform="matrix(1,0,0,1,0,0)"><svg width="120.77649034424857" viewBox="0.323125 -37.0125 24.972548809363996 37.212500000000006" height="180.00000000000003" data-palette-color="#7a26c1">

<path d="M5,-38 L36,-38 L36,-34 L12,-34 L12,-24 L33,-24 L33,-19 L12,-19 L12,-9 L36,-9 L36,-5 L5,-5 L5,-38 Z" 
fill="#7a26c1" fill-rule="nonzero" stroke="none" stroke-width="1" 
stroke-linecap="butt" stroke-linejoin="miter" stroke-miterlimit="10" 
stroke-dasharray="" stroke-dashoffset="0" font-family="none" font-weight="none" 
font-size="none" text-anchor="none" style="mix-blend-mode: normal" 
data-fill-palette-color="tertiary" transform="matrix(1,0,0,1,0,3)"></path>




</svg></g></svg></g></svg></g></svg></g><g transform="matrix(1,0,0,1,23.068309655751477,0)"><svg viewBox="0 0 74.63987103274562 74.63987103274562" height="74.63987103274562" width="74.63987103274562"><g><svg xmlns="http://www.w3.org/2000/svg" xmlns:xlink="http://www.w3.org/1999/xlink" version="1.1" x="0" y="0" viewBox="0 0 32 32" style="enable-background:new 0 0 32 32;" xml:space="preserve" height="74.63987103274562" width="74.63987103274562" class="icon-icon-0" data-fill-palette-color="accent" id="icon-0"><g fill="#6936f5" data-fill-palette-color="accent"><path d="M12 28H2.498C1.121 28 0 26.879 0 25.502V6.48C0 5.113 1.113 4 2.48 4h9.429c0.552 0 1 0.448 1 1s-0.448 1-1 1H2.48C2.215 6 2 6.215 2 6.48v19.021C2 25.771 2.228 26 2.498 26H12c0.552 0 1 0.447 1 1S12.552 28 12 28z" fill="#6936f5" data-fill-palette-color="accent"></path><path d="M28.09 27c0-0.55 0.45-1 1-1l0 0c0.55 0 1 0.45 1 1l0 0c0 0.55-0.45 1-1 1l0 0C28.54 28 28.09 27.55 28.09 27zM25.09 27c0-0.55 0.45-1 1-1l0 0c0.55 0 1 0.45 1 1l0 0c0 0.55-0.45 1-1 1l0 0C25.54 28 25.09 27.55 25.09 27zM22.09 27c0-0.55 0.45-1 1-1l0 0c0.55 0 1 0.45 1 1l0 0c0 0.55-0.45 1-1 1l0 0C22.54 28 22.09 27.55 22.09 27zM19.09 27c0-0.55 0.45-1 1-1l0 0c0.55 0 1 0.45 1 1l0 0c0 0.55-0.45 1-1 1l0 0C19.54 28 19.09 27.55 19.09 27zM30 25.27c0-0.55 0.45-1 1-1l0 0c0.55 0 1 0.45 1 1l0 0c0 0.561-0.45 1-1 1l0 0C30.45 26.27 30 25.83 30 25.27zM30 22.27c0-0.55 0.45-1 1-1l0 0c0.55 0 1 0.45 1 1l0 0c0 0.561-0.45 1-1 1l0 0C30.45 23.27 30 22.83 30 22.27zM30 19.27c0-0.55 0.45-1 1-1l0 0c0.55 0 1 0.45 1 1l0 0c0 0.561-0.45 1-1 1l0 0C30.45 20.27 30 19.83 30 19.27zM30 16.28c0-0.56 0.45-1.01 1-1.01l0 0c0.55 0 1 0.45 1 1.01l0 0c0 0.55-0.45 0.99-1 0.99l0 0C30.45 17.27 30 16.83 30 16.28zM30 13.27c0-0.55 0.45-0.99 1-0.99l0 0c0.55 0 1 0.44 1 0.99l0 0c0 0.56-0.45 1.01-1 1.01l0 0C30.45 14.28 30 13.83 30 13.27zM30 10.28c0-0.56 0.45-1.01 1-1.01l0 0c0.55 0 1 0.45 1 1.01l0 0c0 0.55-0.45 0.99-1 0.99l0 0C30.45 11.27 30 10.83 30 10.28zM30 7.27c0-0.55 0.45-0.99 1-0.99l0 0c0.55 0 1 0.44 1 0.99l0 0c0 0.56-0.45 1.01-1 1.01l0 0C30.45 8.28 30 7.83 30 7.27zM29.55 6c0 0 0 0-0.01 0l0 0c-0.55-0.05-0.95-0.53-0.91-1.08l0 0c0.05-0.55 0.53-0.96 1.09-0.91h-0.01c0.55 0.05 0.96 0.53 0.92 1.08l0 0c-0.05 0.52-0.48 0.92-1 0.92l0 0C29.6 6.01 29.569 6 29.55 6zM25.63 5c0-0.55 0.45-1 1-1l0 0c0.55 0 1 0.45 1 1l0 0c0 0.55-0.45 1-1 1l0 0C26.08 6 25.63 5.55 25.63 5zM22.63 5c0-0.55 0.45-1 1-1l0 0c0.55 0 1 0.45 1 1l0 0c0 0.55-0.45 1-1 1l0 0C23.08 6 22.63 5.55 22.63 5zM19.63 5c0-0.55 0.45-1 1-1l0 0c0.55 0 1 0.45 1 1l0 0c0 0.55-0.45 1-1 1l0 0C20.08 6 19.63 5.55 19.63 5z" fill="#6936f5" data-fill-palette-color="accent"></path><path d="M16 32c-0.552 0-1-0.447-1-1V1c0-0.552 0.448-1 1-1s1 0.448 1 1v30C17 31.553 16.552 32 16 32z" fill="#6936f5" data-fill-palette-color="accent"></path></g></svg></g></svg></g><g></g></svg></g></svg></g></svg></g></svg></g><defs></defs></svg><rect width="320" height="360" fill="none" stroke="none" visibility="hidden"></rect></g></svg></g></svg>